<svg id="Layer_1" data-name="Layer 1" xmlns="http://www.w3.org/2000/svg" xmlns:xlink="http://www.w3.org/1999/xlink" viewBox="0 0 464 445"><defs><style>.cls-1,.cls-10,.cls-14,.cls-16,.cls-20,.cls-7{fill:none;}.cls-2{clip-path:url(#clip-path);}.cls-3{fill:#88cb96;}.cls-13,.cls-4{fill:#92d2d2;}.cls-5{fill:#418e8a;}.cls-6{fill:#28b24b;}.cls-20,.cls-7{stroke:#28b24b;}.cls-10,.cls-11,.cls-13,.cls-14,.cls-16,.cls-19,.cls-20,.cls-7,.cls-8,.cls-9{stroke-miterlimit:10;}.cls-10,.cls-14,.cls-7,.cls-8,.cls-9{stroke-width:5px;}.cls-8{fill:#d8dba3;}.cls-10,.cls-11,.cls-19,.cls-8,.cls-9{stroke:#8c8b65;}.cls-9{fill:#d3eded;}.cls-11,.cls-19{fill:#8c8b65;}.cls-11{stroke-width:3px;}.cls-12{fill:#a74838;}.cls-13,.cls-14{stroke:#a74838;}.cls-13{stroke-width:4px;}.cls-15{fill:#fff;}.cls-16{stroke:#616161;stroke-width:0;}.cls-17{fill:#cfe8d4;}.cls-18{fill:#6c5223;}.cls-20{stroke-width:17px;}</style><clipPath id="clip-path" transform="translate(-74 -173.8)"><path class="cls-1" d="M487.2,504.1L303.9,610a2.17,2.17,0,0,1-2.2,0L118.3,504.1a2.14,2.14,0,0,1-1.1-1.9V290.4a2.14,2.14,0,0,1,1.1-1.9L301.7,182.6a2.17,2.17,0,0,1,2.2,0l183.3,106a2.14,2.14,0,0,1,1.1,1.9V502.3A2.11,2.11,0,0,1,487.2,504.1Z"/></clipPath></defs><title>nodeschool_modv2_2</title><g class="cls-2"><polygon class="cls-3" points="415.4 329.1 229.9 436.2 44.3 329.1 44.3 114.8 229.9 7.6 415.4 114.8 415.4 329.1"/><rect class="cls-4" y="0.2" width="464" height="190.91"/><polygon class="cls-1" points="415.4 329.1 229.9 436.2 44.3 329.1 44.3 114.8 229.9 7.6 415.4 114.8 415.4 329.1"/><path class="cls-5" d="M380.8,253.3l-75.9-43.8h0a0.37,0.37,0,0,0-.3-0.1h-1.1c-0.1,0-.2.1-0.3,0.1h0l-74.7,43.1a1.82,1.82,0,0,0-.7,2.5,1.84,1.84,0,0,0,2.5.7l66.4-38.3-28.2,36a1.85,1.85,0,1,0,2.9,2.3l30.8-39.3v38.4a1.9,1.9,0,0,0,1.9,1.9,1.84,1.84,0,0,0,1.9-1.9V216.5l30.8,39.3a1.8,1.8,0,0,0,1.5.7,1.5,1.5,0,0,0,1.1-.4,1.88,1.88,0,0,0,.3-2.6l-28.2-36,67.6,39a1.49,1.49,0,0,0,.9.2,1.8,1.8,0,0,0,1.6-.9A2,2,0,0,0,380.8,253.3Z" transform="translate(-74 -173.8)"/><polygon class="cls-1" points="415.4 329.1 229.9 436.2 44.3 329.1 44.3 114.8 229.9 7.6 415.4 114.8 415.4 329.1"/><path class="cls-6" d="M380.3,536.2a1.84,1.84,0,0,0-2.5-.7l-66.3,38.3,28.2-36a1.85,1.85,0,1,0-2.9-2.3L306,574.8V536.4a1.9,1.9,0,0,0-1.9-1.9,1.84,1.84,0,0,0-1.9,1.9v38.4l-30.8-39.3a1.85,1.85,0,1,0-2.9,2.3l28.2,36-67.6-39a1.84,1.84,0,0,0-1.8,3.2l75.9,43.8h0.1c0.1,0,.1.1,0.2,0.1h0.3c0.1,0,.3.1,0.4,0.1h0a0.48,0.48,0,0,0,.4-0.1h0.2c0.1,0,.1-0.1.2-0.1h0.1l74.7-43.1A1.93,1.93,0,0,0,380.3,536.2Z" transform="translate(-74 -173.8)"/><polygon class="cls-1" points="415.4 329.1 229.9 436.2 44.3 329.1 44.3 114.8 229.9 7.6 415.4 114.8 415.4 329.1"/><circle class="cls-6" cx="311.3" cy="358.9" r="2.3"/><polygon class="cls-1" points="415.4 329.1 229.9 436.2 44.3 329.1 44.3 114.8 229.9 7.6 415.4 114.8 415.4 329.1"/><circle class="cls-6" cx="147.8" cy="358.9" r="2.3"/><polygon class="cls-1" points="415.4 329.1 229.9 436.2 44.3 329.1 44.3 114.8 229.9 7.6 415.4 114.8 415.4 329.1"/><circle class="cls-7" cx="232" cy="233.3" r="0.4"/><polygon class="cls-1" points="415.4 329.1 229.9 436.2 44.3 329.1 44.3 114.8 229.9 7.6 415.4 114.8 415.4 329.1"/><path class="cls-8" d="M93.9,480.9l117.5-.5a2.26,2.26,0,0,0,2.3-2.3l-0.5-117.5a2.26,2.26,0,0,0-2.3-2.3l-117.5.5a2.26,2.26,0,0,0-2.3,2.3l0.5,117.5A2.33,2.33,0,0,0,93.9,480.9Z" transform="translate(-74 -173.8)"/><polygon class="cls-1" points="415.4 329.1 229.9 436.2 44.3 329.1 44.3 114.8 229.9 7.6 415.4 114.8 415.4 329.1"/><path class="cls-8" d="M84.3,481l100.4-.4a2.26,2.26,0,0,0,2.3-2.3l-0.5-110.2a2.26,2.26,0,0,0-2.3-2.3l-100.4.4a2.26,2.26,0,0,0-2.3,2.3L82,478.7A2.4,2.4,0,0,0,84.3,481Z" transform="translate(-74 -173.8)"/><polygon class="cls-1" points="415.4 329.1 229.9 436.2 44.3 329.1 44.3 114.8 229.9 7.6 415.4 114.8 415.4 329.1"/><path class="cls-8" d="M84,371.6l93.5-.4a2.26,2.26,0,0,0,2.3-2.3l-0.1-16.4a2.26,2.26,0,0,0-2.3-2.3l-93.5.4a2.26,2.26,0,0,0-2.3,2.3l0.1,16.4A2.15,2.15,0,0,0,84,371.6Z" transform="translate(-74 -173.8)"/><polygon class="cls-1" points="415.4 329.1 229.9 436.2 44.3 329.1 44.3 114.8 229.9 7.6 415.4 114.8 415.4 329.1"/><path class="cls-9" d="M125.5,435l41-.2a2.26,2.26,0,0,0,2.3-2.3l-0.2-39.2a2.26,2.26,0,0,0-2.3-2.3l-41,.2a2.26,2.26,0,0,0-2.3,2.3l0.2,39.2A2.39,2.39,0,0,0,125.5,435Z" transform="translate(-74 -173.8)"/><polygon class="cls-1" points="415.4 329.1 229.9 436.2 44.3 329.1 44.3 114.8 229.9 7.6 415.4 114.8 415.4 329.1"/><line class="cls-10" x1="71.8" y1="216.4" x2="72" y2="262.2"/><polygon class="cls-1" points="415.4 329.1 229.9 436.2 44.3 329.1 44.3 114.8 229.9 7.6 415.4 114.8 415.4 329.1"/><line class="cls-8" x1="94.8" y1="239.7" x2="48.4" y2="239.8"/><polygon class="cls-1" points="415.4 329.1 229.9 436.2 44.3 329.1 44.3 114.8 229.9 7.6 415.4 114.8 415.4 329.1"/><path class="cls-8" d="M515.2,479.7H397.7a2.26,2.26,0,0,1-2.3-2.3V359.9a2.26,2.26,0,0,1,2.3-2.3H515.2a2.26,2.26,0,0,1,2.3,2.3V477.4A2.33,2.33,0,0,1,515.2,479.7Z" transform="translate(-74 -173.8)"/><polygon class="cls-1" points="415.4 329.1 229.9 436.2 44.3 329.1 44.3 114.8 229.9 7.6 415.4 114.8 415.4 329.1"/><path class="cls-8" d="M524.8,479.7H424.3a2.26,2.26,0,0,1-2.3-2.3V367.2a2.26,2.26,0,0,1,2.3-2.3H524.7a2.26,2.26,0,0,1,2.3,2.3V477.4A2.13,2.13,0,0,1,524.8,479.7Z" transform="translate(-74 -173.8)"/><polygon class="cls-1" points="415.4 329.1 229.9 436.2 44.3 329.1 44.3 114.8 229.9 7.6 415.4 114.8 415.4 329.1"/><path class="cls-8" d="M524.8,370.5H431.2a2.26,2.26,0,0,1-2.3-2.3V351.8a2.26,2.26,0,0,1,2.3-2.3h93.5a2.26,2.26,0,0,1,2.3,2.3v16.4A2.18,2.18,0,0,1,524.8,370.5Z" transform="translate(-74 -173.8)"/><polygon class="cls-1" points="415.4 329.1 229.9 436.2 44.3 329.1 44.3 114.8 229.9 7.6 415.4 114.8 415.4 329.1"/><path class="cls-9" d="M483.4,433.9h-41a2.26,2.26,0,0,1-2.3-2.3V392.4a2.26,2.26,0,0,1,2.3-2.3h41a2.26,2.26,0,0,1,2.3,2.3v39.2A2.26,2.26,0,0,1,483.4,433.9Z" transform="translate(-74 -173.8)"/><polygon class="cls-1" points="415.4 329.1 229.9 436.2 44.3 329.1 44.3 114.8 229.9 7.6 415.4 114.8 415.4 329.1"/><line class="cls-10" x1="388.9" y1="215.4" x2="388.9" y2="261.2"/><polygon class="cls-1" points="415.4 329.1 229.9 436.2 44.3 329.1 44.3 114.8 229.9 7.6 415.4 114.8 415.4 329.1"/><line class="cls-10" x1="366.1" y1="238.7" x2="412.5" y2="238.7"/><polygon class="cls-1" points="415.4 329.1 229.9 436.2 44.3 329.1 44.3 114.8 229.9 7.6 415.4 114.8 415.4 329.1"/><path class="cls-8" d="M400.9,485H205.5a2.26,2.26,0,0,1-2.3-2.3V316.3a2.26,2.26,0,0,1,2.3-2.3H400.9a2.26,2.26,0,0,1,2.3,2.3V482.7A2.47,2.47,0,0,1,400.9,485Z" transform="translate(-74 -173.8)"/><polygon class="cls-1" points="415.4 329.1 229.9 436.2 44.3 329.1 44.3 114.8 229.9 7.6 415.4 114.8 415.4 329.1"/><path class="cls-8" d="M225.6,355.4v9.9a1.69,1.69,0,0,0,1.7,1.7h3.8v77h18.3V366.6h3.7a1.69,1.69,0,0,0,1.7-1.7v-9.5H225.6Z" transform="translate(-74 -173.8)"/><polygon class="cls-1" points="415.4 329.1 229.9 436.2 44.3 329.1 44.3 114.8 229.9 7.6 415.4 114.8 415.4 329.1"/><path class="cls-8" d="M356,355.6v9.9a1.69,1.69,0,0,0,1.7,1.7h3.8v77h18.3V366.8h3.7a1.69,1.69,0,0,0,1.7-1.7v-9.5H356Z" transform="translate(-74 -173.8)"/><polygon class="cls-1" points="415.4 329.1 229.9 436.2 44.3 329.1 44.3 114.8 229.9 7.6 415.4 114.8 415.4 329.1"/><path class="cls-8" d="M388.7,356.1H221.8a2.26,2.26,0,0,1-2.3-2.3V338a2.26,2.26,0,0,1,2.3-2.3H388.7A2.26,2.26,0,0,1,391,338v15.8A2.26,2.26,0,0,1,388.7,356.1Z" transform="translate(-74 -173.8)"/><polygon class="cls-1" points="415.4 329.1 229.9 436.2 44.3 329.1 44.3 114.8 229.9 7.6 415.4 114.8 415.4 329.1"/><path class="cls-11" d="M381,346c0-.64-0.9-1.22-1.9-1.22h-149c-1,0-1.9.58-1.9,1.22s0.9,1.22,1.9,1.22h149C380.1,347.22,381,346.71,381,346Z" transform="translate(-74 -173.8)"/><polygon class="cls-1" points="415.4 329.1 229.9 436.2 44.3 329.1 44.3 114.8 229.9 7.6 415.4 114.8 415.4 329.1"/><path class="cls-8" d="M382.1,450H227.8a2.26,2.26,0,0,1-2.3-2.3v-7.1a2.26,2.26,0,0,1,2.3-2.3H382.2a2.26,2.26,0,0,1,2.3,2.3v7.1A2.41,2.41,0,0,1,382.1,450Z" transform="translate(-74 -173.8)"/><polygon class="cls-1" points="415.4 329.1 229.9 436.2 44.3 329.1 44.3 114.8 229.9 7.6 415.4 114.8 415.4 329.1"/><path class="cls-8" d="M389.1,461.8H221.7a2.26,2.26,0,0,1-2.3-2.3v-7.1a2.26,2.26,0,0,1,2.3-2.3H389a2.26,2.26,0,0,1,2.3,2.3v7.1A2.38,2.38,0,0,1,389.1,461.8Z" transform="translate(-74 -173.8)"/><polygon class="cls-1" points="415.4 329.1 229.9 436.2 44.3 329.1 44.3 114.8 229.9 7.6 415.4 114.8 415.4 329.1"/><path class="cls-8" d="M395.2,473.6H212.6a2.26,2.26,0,0,1-2.3-2.3v-7.1a2.26,2.26,0,0,1,2.3-2.3H395.3a2.26,2.26,0,0,1,2.3,2.3v7.1A2.41,2.41,0,0,1,395.2,473.6Z" transform="translate(-74 -173.8)"/><polygon class="cls-1" points="415.4 329.1 229.9 436.2 44.3 329.1 44.3 114.8 229.9 7.6 415.4 114.8 415.4 329.1"/><path class="cls-8" d="M402.2,485.5H204.1a2.26,2.26,0,0,1-2.3-2.3V476a2.26,2.26,0,0,1,2.3-2.3H402.2a2.26,2.26,0,0,1,2.3,2.3v7.1A2.35,2.35,0,0,1,402.2,485.5Z" transform="translate(-74 -173.8)"/><polygon class="cls-1" points="415.4 329.1 229.9 436.2 44.3 329.1 44.3 114.8 229.9 7.6 415.4 114.8 415.4 329.1"/><path class="cls-7" d="M345.6,402.8l-19.3,33.5a2.34,2.34,0,0,1-1.8,1.1H285.8a2.11,2.11,0,0,1-1.8-1.1l-19.4-33.5a2,2,0,0,1,0-2.1l19.3-33.5a2.34,2.34,0,0,1,1.8-1.1h38.7a2.11,2.11,0,0,1,1.8,1.1l19.3,33.5A2.22,2.22,0,0,1,345.6,402.8Z" transform="translate(-74 -173.8)"/><polygon class="cls-1" points="415.4 329.1 229.9 436.2 44.3 329.1 44.3 114.8 229.9 7.6 415.4 114.8 415.4 329.1"/><path class="cls-8" d="M345.6,402.8l-19.3,33.5a2.34,2.34,0,0,1-1.8,1.1H285.8a2.11,2.11,0,0,1-1.8-1.1l-19.4-33.5a2,2,0,0,1,0-2.1l19.3-33.5a2.34,2.34,0,0,1,1.8-1.1h38.7a2.11,2.11,0,0,1,1.8,1.1l19.3,33.5A2.22,2.22,0,0,1,345.6,402.8Z" transform="translate(-74 -173.8)"/><path class="cls-8" d="M345.6,402.8l-19.3,33.5a2.34,2.34,0,0,1-1.8,1.1H285.8a2.11,2.11,0,0,1-1.8-1.1l-19.4-33.5a2,2,0,0,1,0-2.1l19.3-33.5a2.34,2.34,0,0,1,1.8-1.1h38.7a2.11,2.11,0,0,1,1.8,1.1l19.3,33.5A2.22,2.22,0,0,1,345.6,402.8Z" transform="translate(-74 -173.8)"/><path class="cls-8" d="M345.6,402.8l-19.3,33.5a2.34,2.34,0,0,1-1.8,1.1H285.8a2.11,2.11,0,0,1-1.8-1.1l-19.4-33.5a2,2,0,0,1,0-2.1l19.3-33.5a2.34,2.34,0,0,1,1.8-1.1h38.7a2.11,2.11,0,0,1,1.8,1.1l19.3,33.5A2.22,2.22,0,0,1,345.6,402.8Z" transform="translate(-74 -173.8)"/><path class="cls-8" d="M345.6,402.8l-19.3,33.5a2.34,2.34,0,0,1-1.8,1.1H285.8a2.11,2.11,0,0,1-1.8-1.1l-19.4-33.5a2,2,0,0,1,0-2.1l19.3-33.5a2.34,2.34,0,0,1,1.8-1.1h38.7a2.11,2.11,0,0,1,1.8,1.1l19.3,33.5A2.22,2.22,0,0,1,345.6,402.8Z" transform="translate(-74 -173.8)"/><path class="cls-8" d="M345.6,402.8l-19.3,33.5a2.34,2.34,0,0,1-1.8,1.1H285.8a2.11,2.11,0,0,1-1.8-1.1l-19.4-33.5a2,2,0,0,1,0-2.1l19.3-33.5a2.34,2.34,0,0,1,1.8-1.1h38.7a2.11,2.11,0,0,1,1.8,1.1l19.3,33.5A2.22,2.22,0,0,1,345.6,402.8Z" transform="translate(-74 -173.8)"/><path class="cls-8" d="M345.6,402.8l-19.3,33.5a2.34,2.34,0,0,1-1.8,1.1H285.8a2.11,2.11,0,0,1-1.8-1.1l-19.4-33.5a2,2,0,0,1,0-2.1l19.3-33.5a2.34,2.34,0,0,1,1.8-1.1h38.7a2.11,2.11,0,0,1,1.8,1.1l19.3,33.5A2.22,2.22,0,0,1,345.6,402.8Z" transform="translate(-74 -173.8)"/><path class="cls-8" d="M345.6,402.8l-19.3,33.5a2.34,2.34,0,0,1-1.8,1.1H285.8a2.11,2.11,0,0,1-1.8-1.1l-19.4-33.5a2,2,0,0,1,0-2.1l19.3-33.5a2.34,2.34,0,0,1,1.8-1.1h38.7a2.11,2.11,0,0,1,1.8,1.1l19.3,33.5A2.22,2.22,0,0,1,345.6,402.8Z" transform="translate(-74 -173.8)"/><path class="cls-8" d="M345.6,402.8l-19.3,33.5a2.34,2.34,0,0,1-1.8,1.1H285.8a2.11,2.11,0,0,1-1.8-1.1l-19.4-33.5a2,2,0,0,1,0-2.1l19.3-33.5a2.34,2.34,0,0,1,1.8-1.1h38.7a2.11,2.11,0,0,1,1.8,1.1l19.3,33.5A2.22,2.22,0,0,1,345.6,402.8Z" transform="translate(-74 -173.8)"/><path class="cls-8" d="M345.6,402.8l-19.3,33.5a2.34,2.34,0,0,1-1.8,1.1H285.8a2.11,2.11,0,0,1-1.8-1.1l-19.4-33.5a2,2,0,0,1,0-2.1l19.3-33.5a2.34,2.34,0,0,1,1.8-1.1h38.7a2.11,2.11,0,0,1,1.8,1.1l19.3,33.5A2.22,2.22,0,0,1,345.6,402.8Z" transform="translate(-74 -173.8)"/><path class="cls-8" d="M345.6,402.8l-19.3,33.5a2.34,2.34,0,0,1-1.8,1.1H285.8a2.11,2.11,0,0,1-1.8-1.1l-19.4-33.5a2,2,0,0,1,0-2.1l19.3-33.5a2.34,2.34,0,0,1,1.8-1.1h38.7a2.11,2.11,0,0,1,1.8,1.1l19.3,33.5A2.22,2.22,0,0,1,345.6,402.8Z" transform="translate(-74 -173.8)"/><path class="cls-8" d="M345.6,402.8l-19.3,33.5a2.34,2.34,0,0,1-1.8,1.1H285.8a2.11,2.11,0,0,1-1.8-1.1l-19.4-33.5a2,2,0,0,1,0-2.1l19.3-33.5a2.34,2.34,0,0,1,1.8-1.1h38.7a2.11,2.11,0,0,1,1.8,1.1l19.3,33.5A2.22,2.22,0,0,1,345.6,402.8Z" transform="translate(-74 -173.8)"/><path class="cls-8" d="M345.6,402.8l-19.3,33.5a2.34,2.34,0,0,1-1.8,1.1H285.8a2.11,2.11,0,0,1-1.8-1.1l-19.4-33.5a2,2,0,0,1,0-2.1l19.3-33.5a2.34,2.34,0,0,1,1.8-1.1h38.7a2.11,2.11,0,0,1,1.8,1.1l19.3,33.5A2.22,2.22,0,0,1,345.6,402.8Z" transform="translate(-74 -173.8)"/><rect class="cls-8" x="215.8" y="192.3" width="31.6" height="71"/><polygon class="cls-1" points="415.4 329.1 229.9 436.2 44.3 329.1 44.3 114.8 229.9 7.6 415.4 114.8 415.4 329.1"/><path class="cls-12" d="M84.4,343.3S140.3,287.4,238,270c97.1-17.3,148.8,2.6,158.6,5,0,0,85.3,24.1,120.8,62.5l-14.2,21.7s-46.1-45.9-128-62.2-156.3,3.8-156.3,3.8-75.1,20.6-118.3,64Z" transform="translate(-74 -173.8)"/><path class="cls-13" d="M489.41,319.08l-10.8,17a292.68,292.68,0,0,0-49.87-26.68l8.05-17.71A270,270,0,0,1,489.41,319.08Z" transform="translate(-74 -173.8)"/><polyline class="cls-14" points="413.97 145.08 389.55 152.77 381.67 127.15 356.39 134.81"/><polyline class="cls-14" points="405.79 160.24 398.13 136.03 373.68 143.5 364.8 118.91"/><polygon class="cls-1" points="415.4 329.1 229.9 436.2 44.3 329.1 44.3 114.8 229.9 7.6 415.4 114.8 415.4 329.1"/><path class="cls-15" d="M245,288.6a1.17,1.17,0,0,0,1-1.4c-0.4-2.4-.6-3.7-1-6.1,2.5,2.3,3.7,3.5,6.2,5.8a2,2,0,0,0,1.4.6h0.1a1.29,1.29,0,0,0,1.1-1.5c-0.5-3.6-.8-5.5-1.3-9.1a1.17,1.17,0,0,0-1.4-1,1.24,1.24,0,0,0-1.1,1.4c0.4,2.4.5,3.6,0.9,5.9-2.4-2.3-3.6-3.4-6-5.6a2,2,0,0,0-1.5-.6,0.37,0.37,0,0,0-.3.1,1.29,1.29,0,0,0-1.1,1.5c0.6,3.6.9,5.4,1.6,9.1A1.18,1.18,0,0,0,245,288.6Z" transform="translate(-74 -173.8)"/><path class="cls-15" d="M262.4,286.2a6.15,6.15,0,0,0,5.6-6.7h0a6,6,0,0,0-6.9-5.3,6.1,6.1,0,0,0-5.6,6.8h0A5.94,5.94,0,0,0,262.4,286.2Zm-4.1-5.5a3.41,3.41,0,0,1,3.1-4,3.69,3.69,0,0,1,4,3.3h0a3.52,3.52,0,0,1-3.1,4,3.71,3.71,0,0,1-4-3.3h0Z" transform="translate(-74 -173.8)"/><path class="cls-15" d="M272.1,284.9c1.3-.1,1.9-0.2,3.2-0.3,3.7-.3,5.9-3,5.7-6.2h0c-0.2-3.2-3-5.6-6.7-5.3-1.3.1-2,.2-3.3,0.3a1.27,1.27,0,0,0-1.2,1.4c0.3,3.5.5,5.3,0.9,8.9A1.25,1.25,0,0,0,272.1,284.9Zm0.5-9.3c0.8-.1,1.2-0.1,2-0.2a3.36,3.36,0,0,1,3.9,3.2h0a3.5,3.5,0,0,1-3.3,3.8c-0.8.1-1.1,0.1-1.9,0.2C272.9,279.8,272.8,278.4,272.6,275.6Z" transform="translate(-74 -173.8)"/><path class="cls-15" d="M285.1,283.9c2.6-.1,3.9-0.2,6.5-0.3a1.1,1.1,0,0,0,0-2.2c-2.1.1-3.2,0.1-5.4,0.2a20.91,20.91,0,0,1-.1-2.5c1.8-.1,2.7-0.1,4.5-0.2a1.11,1.11,0,0,0,1.1-1.1,1.2,1.2,0,0,0-1.2-1.1c-1.8.1-2.7,0.1-4.5,0.2a19.27,19.27,0,0,1-.1-2.4c2.1-.1,3.2-0.2,5.4-0.2a1.11,1.11,0,0,0,1.1-1.1,1.2,1.2,0,0,0-1.2-1.1c-2.7.1-4,.2-6.6,0.3a1.35,1.35,0,0,0-1.3,1.4l0.5,9A1.11,1.11,0,0,0,285.1,283.9Z" transform="translate(-74 -173.8)"/><path class="cls-15" d="M294.7,282.3a7.2,7.2,0,0,0,4.5,1.3c2.5,0,4.3-1.3,4.3-3.6h0c0-2-1.3-2.9-3.8-3.5-2.1-.5-2.6-0.8-2.6-1.5h0a1.31,1.31,0,0,1,1.5-1.1,5.56,5.56,0,0,1,2.6.8,1.42,1.42,0,0,0,.6.2,1.13,1.13,0,0,0,1.2-1.1,1.63,1.63,0,0,0-.5-1.1,7,7,0,0,0-3.8-1.1c-2.5,0-4.1,1.5-4,3.6h0c0.1,2.3,1.6,2.9,4.1,3.4,1.9,0.5,2.5.8,2.5,1.5h0c0,0.7-.6,1.1-1.7,1.1a6,6,0,0,1-3.1-1,1.49,1.49,0,0,0-.7-0.3,1.13,1.13,0,0,0-1.2,1.1C294.2,281.8,294.4,282.1,294.7,282.3Z" transform="translate(-74 -173.8)"/><path class="cls-15" d="M311,283.6a5.79,5.79,0,0,0,4.2-1.4,1,1,0,0,0,.4-0.9,1.13,1.13,0,0,0-1.2-1.1,1.33,1.33,0,0,0-.8.3,3.49,3.49,0,0,1-2.5.9,3.43,3.43,0,0,1-3.3-3.7h0a3.48,3.48,0,0,1,3.4-3.6,4.63,4.63,0,0,1,2.5.8,1.49,1.49,0,0,0,.8.3,1.3,1.3,0,0,0,1.3-1.2,2.22,2.22,0,0,0-.5-1.1,6.35,6.35,0,0,0-4-1.2,5.88,5.88,0,0,0-6.2,6h0A5.85,5.85,0,0,0,311,283.6Z" transform="translate(-74 -173.8)"/><path class="cls-15" d="M319.2,283.7a1.32,1.32,0,0,0,1.4-1.2c0.1-1.4.1-2.1,0.1-3.5,1.9,0.1,2.9.1,4.8,0.2-0.1,1.4-.1,2.1-0.2,3.5a1.3,1.3,0,0,0,2.6.2c0.2-3.7.3-5.5,0.6-9.2a1.34,1.34,0,0,0-1.3-1.4,1.27,1.27,0,0,0-1.4,1.2c-0.1,1.4-.1,2-0.2,3.4-1.9-.1-2.9-0.2-4.8-0.2,0.1-1.4.1-2,.1-3.4a1.41,1.41,0,0,0-1.3-1.4,1.33,1.33,0,0,0-1.4,1.2c-0.1,3.7-.2,5.5-0.3,9.2A1.29,1.29,0,0,0,319.2,283.7Z" transform="translate(-74 -173.8)"/><path class="cls-15" d="M336.1,284.9a6,6,0,0,0,6.7-5.4h0a6.07,6.07,0,0,0-5.7-6.6,6,6,0,0,0-6.8,5.5h0A6.22,6.22,0,0,0,336.1,284.9Zm-3.1-6.2a3.48,3.48,0,0,1,3.9-3.3,3.54,3.54,0,0,1,3.2,4h0a3.6,3.6,0,0,1-3.9,3.3,3.9,3.9,0,0,1-3.2-4h0Z" transform="translate(-74 -173.8)"/><path class="cls-15" d="M350.2,286.4a6,6,0,0,0,7-5.1h0a6.25,6.25,0,0,0-12.4-1.6h0A6,6,0,0,0,350.2,286.4Zm-2.8-6.3a3.42,3.42,0,0,1,4-3.1,3.67,3.67,0,0,1,3.1,4.1h0a3.47,3.47,0,0,1-4,3.1,3.73,3.73,0,0,1-3.1-4.1h0Z" transform="translate(-74 -173.8)"/><path class="cls-15" d="M360,287.5l6,1a1.12,1.12,0,1,0,.4-2.2c-1.9-.3-2.8-0.5-4.7-0.8,0.5-3.2.8-4.8,1.3-8a1.32,1.32,0,1,0-2.6-.4c-0.5,3.6-.8,5.3-1.3,8.9A1,1,0,0,0,360,287.5Z" transform="translate(-74 -173.8)"/><polygon class="cls-1" points="415.4 329.1 229.9 436.2 44.3 329.1 44.3 114.8 229.9 7.6 415.4 114.8 415.4 329.1"/><polygon class="cls-1" points="415.4 329.1 229.9 436.2 44.3 329.1 44.3 114.8 229.9 7.6 415.4 114.8 415.4 329.1"/><path class="cls-15" d="M254.6,525.5a1.31,1.31,0,0,1,.5-1.7l0.2-.1a1.22,1.22,0,0,1,1.3,0l5,2.7,0.2-5.7a1.25,1.25,0,0,1,.6-1.1l0.2-.1a1.31,1.31,0,0,1,1.7.5l4.5,7.7a1.25,1.25,0,0,1-2.2,1.2l-2.8-4.8-0.2,4a1.25,1.25,0,0,1-.6,1.1,1.05,1.05,0,0,1-1.2,0l-3.5-1.8,2.8,4.8a1.17,1.17,0,0,1-.5,1.6,1.23,1.23,0,0,1-1.6-.4Z" transform="translate(-74 -173.8)"/><polygon class="cls-1" points="415.4 329.1 229.9 436.2 44.3 329.1 44.3 114.8 229.9 7.6 415.4 114.8 415.4 329.1"/><path class="cls-15" d="M298,520.7h0a5.79,5.79,0,0,1,6-5.8,5.7,5.7,0,0,1,5.9,5.8h0A6,6,0,0,1,298,520.7Zm9.3,0h0a3.4,3.4,0,1,0-6.8-.1h0a3.39,3.39,0,0,0,3.4,3.5A3.26,3.26,0,0,0,307.3,520.7Z" transform="translate(-74 -173.8)"/><polygon class="cls-1" points="415.4 329.1 229.9 436.2 44.3 329.1 44.3 114.8 229.9 7.6 415.4 114.8 415.4 329.1"/><path class="cls-15" d="M345,520.5a1.28,1.28,0,0,1,1.7-.5l2.7,1.6c3,1.8,3.9,5.1,2.4,7.8h0c-1.6,2.7-4.9,3.6-8,1.9l-2.7-1.6a1.28,1.28,0,0,1-.5-1.7Zm-0.1,8.9a3.22,3.22,0,0,0,4.6-1.2h0a3.22,3.22,0,0,0-1.2-4.6l-1.6-1-3.4,5.8Z" transform="translate(-74 -173.8)"/><polygon class="cls-1" points="415.4 329.1 229.9 436.2 44.3 329.1 44.3 114.8 229.9 7.6 415.4 114.8 415.4 329.1"/><path class="cls-13" d="M167,294.8l8.2,18.4a292.68,292.68,0,0,0-49.8,26.8l-10.3-16.5A270,270,0,0,1,167,294.8Z" transform="translate(-74 -173.8)"/><polyline class="cls-14" points="90.09 123.2 82.99 147.8 57.29 140.2 49.69 165.5"/><polyline class="cls-14" points="98.19 138.4 73.79 131.4 66.49 155.9 41.09 149.7"/><polygon class="cls-1" points="415.4 329.1 229.9 436.2 44.3 329.1 44.3 114.8 229.9 7.6 415.4 114.8 415.4 329.1"/><polygon class="cls-16" points="415.4 329.1 229.9 436.2 44.3 329.1 44.3 114.8 229.9 7.6 415.4 114.8 415.4 329.1"/><polygon class="cls-1" points="415.4 329.1 229.9 436.2 44.3 329.1 44.3 114.8 229.9 7.6 415.4 114.8 415.4 329.1"/><path class="cls-17" d="M254.31,427.08a4.39,4.39,0,0,0-.62,1.72l-0.26-.23a8.94,8.94,0,0,0,.74-1.73Z" transform="translate(-74 -173.8)"/><path class="cls-18" d="M206.74,517s3-36.23,0-42.35c-2.62-5.43-4.74-18.46-4.59-23.7s-22.77-15.22-28.51-16.87c-5.57-1.6-32.94-8.28-45.08,6.68,0,0,.5-20.39,51.2-10.27,0,0,13.42,2,21.43,8.56,0,0-13-15.18-30.92-24.42-16.75-8.63-39.39-41.89-42-53.3,0,0,23.32,34.3,37.34,43.94,4.86,3.34,40.29,21.54,45,31.14,0,0,7-11.48,6.21-16.35s-14.43-24.81-17.89-35.2c-4-12.17-4.87-30.45,11.45-50.57,0,0-13.55,27.28-8.2,42.48,6.06,17.24,19.09,29.77,22.68,44.87,0,0-2.92,8.32-2.31,14.47,0.48,4.86,24.82-24.9,45.26-26.1,0,0-42.22,27.83-47.54,39s5.34,20.4,5,29.8c-0.34,8.51,5.42,40.18,5.42,40.18Z" transform="translate(-74 -173.8)"/><path class="cls-18" d="M171.15,411.37s-9-55.82-17.87-78.34c0,0,15.23,27.1,21.72,80.64Z" transform="translate(-74 -173.8)"/><path class="cls-18" d="M155.84,401.94s-25.35,2.62-35.59-3.56c0,0,28.25,2.43,33.81.86C158.12,398.1,155.84,401.94,155.84,401.94Z" transform="translate(-74 -173.8)"/><path class="cls-18" d="M179.08,374.28c1.59,5.07,7.47,17.36,28,23.53l3.09,6.5s-33.71-7.06-35.3-32c0,0,.71-47.78-4.6-52.58,0,0,7.71.64,8.25,50.9A12.73,12.73,0,0,0,179.08,374.28Z" transform="translate(-74 -173.8)"/><path class="cls-18" d="M220.47,417.43a13.93,13.93,0,0,0,5.3-2.39c12.74-8.34,43.63-30.89,43.45-53.32,0,0,6.76,28.69-48,62.19Z" transform="translate(-74 -173.8)"/><path class="cls-18" d="M240.12,426.09s19.3-1.12,32.39,9.45c0,0-20.69-7.47-35.19-6Z" transform="translate(-74 -173.8)"/><path class="cls-18" d="M162.41,361.19s-21-3.32-29.57-21.77c0,0,11.34,17.1,29.07,18.93Z" transform="translate(-74 -173.8)"/><path class="cls-18" d="M220,414.73s3.32-33.35,17.78-51.68c13.1-16.6,10.81-25.18,10.81-25.18s2.77,11.41-9,28.89-15.26,51-15.26,51Z" transform="translate(-74 -173.8)"/><path class="cls-18" d="M247.28,400.83s-4.09-16.43-.62-28.94c0,0,.12,19,2.59,24.81Z" transform="translate(-74 -173.8)"/><path class="cls-18" d="M224.87,391.1s-12.62-18.43-12.79-28c0,0,10.36,23,15.27,25.08Z" transform="translate(-74 -173.8)"/><path class="cls-17" d="M124,398.42c1.07-1.92-.59-4.07-1.9-5a9.19,9.19,0,0,0-4-1.48s0.82,0.5,1.44,3,4.43,3.54,4.43,3.54" transform="translate(-74 -173.8)"/><path class="cls-17" d="M123.91,398.11a4.22,4.22,0,0,0,1.3,1.05l-0.32.1a8.28,8.28,0,0,0-1.26-1.14Z" transform="translate(-74 -173.8)"/><path class="cls-17" d="M121.15,399.33c-1-1.5-3.26-1-4.45-.41a7.63,7.63,0,0,0-2.54,2.43s0.67-.43,2.75,0,4.25-2,4.25-2" transform="translate(-74 -173.8)"/><path class="cls-17" d="M120.88,399.3a3.5,3.5,0,0,0,1.26-.59l0,0.27a6.87,6.87,0,0,0-1.31.53Z" transform="translate(-74 -173.8)"/><path class="cls-6" d="M136.5,342.69a5.7,5.7,0,0,0,2.74-4.87c-0.12-3.53.43-4.22,0.43-4.22a4.35,4.35,0,0,0-2.88,1.94,7.88,7.88,0,0,0-.29,7.15" transform="translate(-74 -173.8)"/><path class="cls-6" d="M133.34,340.11a4.54,4.54,0,0,0-.49-4.42c-1.71-2.23-1.68-2.93-1.68-2.93a3.46,3.46,0,0,0-1,2.59,6.27,6.27,0,0,0,3.13,4.76" transform="translate(-74 -173.8)"/><path class="cls-6" d="M142.76,349.15a4.9,4.9,0,0,0-.3-4.8c-1.74-2.49-1.67-3.24-1.67-3.24a3.74,3.74,0,0,0-1.17,2.75,6.78,6.78,0,0,0,3.14,5.3" transform="translate(-74 -173.8)"/><path class="cls-6" d="M138.63,348.48a5.93,5.93,0,0,0-5-2.86c-3.67.09-4.38-.47-4.38-0.47a4.48,4.48,0,0,0,2,3,8.25,8.25,0,0,0,7.44.35" transform="translate(-74 -173.8)"/><path class="cls-6" d="M151,354.53c1.57,1.16,3.68.25,4.7-.59a6.33,6.33,0,0,0,1.8-2.8s-0.55.54-2.82,0.59-3.68,2.8-3.68,2.8" transform="translate(-74 -173.8)"/><path class="cls-6" d="M150.24,354.72a2.8,2.8,0,0,0,.64-3.05,3.79,3.79,0,0,0-1.26-1.65,3.13,3.13,0,0,1-.25,1.88,3.6,3.6,0,0,0,.86,2.83" transform="translate(-74 -173.8)"/><path class="cls-6" d="M144.19,354c-1.13-1.45-3.31-1.3-4.47-.88a5.53,5.53,0,0,0-2.39,1.86s0.65-.3,2.74.33,4.12-1.31,4.12-1.31" transform="translate(-74 -173.8)"/><path class="cls-6" d="M149.48,357c-0.91-1.49-3-1.58-4.11-1.31a5.24,5.24,0,0,0-2.45,1.5s0.64-.22,2.55.6,4-.79,4-0.79" transform="translate(-74 -173.8)"/><path class="cls-6" d="M155.38,395.06c2.12-1,2.57-3.7,2.39-5.24a7,7,0,0,0-1.6-3.49s0.18,0.88-1.2,3.28,0.41,5.45.41,5.45" transform="translate(-74 -173.8)"/><path class="cls-6" d="M133.58,368c1.69-1.58,1.7-4.73,1.33-6.41a7.68,7.68,0,0,0-1.86-3.52s0.28,0.94-.58,3.94,1.11,6,1.11,6" transform="translate(-74 -173.8)"/><path class="cls-6" d="M134,369.09a3.24,3.24,0,0,0,2.68-1.71c0.89-1.8,1.34-2,1.34-2a2.47,2.47,0,0,0-2,.2,4.48,4.48,0,0,0-2.06,3.51" transform="translate(-74 -173.8)"/><path class="cls-6" d="M132.91,372.66a4.39,4.39,0,0,0-4-1.52c-2.67.5-3.26,0.16-3.26,0.16a3.35,3.35,0,0,0,1.81,2,6.07,6.07,0,0,0,5.48-.61" transform="translate(-74 -173.8)"/><path class="cls-6" d="M143.39,380.87s2.25-2.15,1.15-4.66c-1.25-2.59-.93-3.3-0.93-3.3s-1.95,1.05-2.24,2.53a5.05,5.05,0,0,0,2,5.44" transform="translate(-74 -173.8)"/><path class="cls-6" d="M147.05,386a2.54,2.54,0,0,0,1.67-2.21c-0.13-1.63.21-1.94,0.21-1.94a2.87,2.87,0,0,0-1.8.85,2.76,2.76,0,0,0-.08,3.3" transform="translate(-74 -173.8)"/><path class="cls-6" d="M128.65,363.34a3.93,3.93,0,0,0-2.58-2.84c-2.24-.57-2.57-1.08-2.57-1.08a3.4,3.4,0,0,0,.71,2.39,4.74,4.74,0,0,0,4.44,1.52" transform="translate(-74 -173.8)"/><path class="cls-6" d="M130.41,363.53a4,4,0,0,0,.59-3.91c-1-2.31-.78-2.9-0.78-2.9a3.08,3.08,0,0,0-1.42,2,5.58,5.58,0,0,0,1.61,4.8" transform="translate(-74 -173.8)"/><path class="cls-6" d="M147.42,386.44a1.69,1.69,0,0,0,2.15.27c1.13-.9,1.47-0.78,1.47-0.78a2.05,2.05,0,0,0-1.22-1,2.35,2.35,0,0,0-2.4,1.55" transform="translate(-74 -173.8)"/><path class="cls-6" d="M136.41,378.21a3.19,3.19,0,0,0-3-2c-2.28.14-2.69-.26-2.69-0.26a3,3,0,0,0,1.06,2.16,4.31,4.31,0,0,0,4.58.1" transform="translate(-74 -173.8)"/><path class="cls-6" d="M137.48,381.21c-1.87-2.05-5.12-.91-6.81.27-1.9,1.14-3.36,4.18-3.36,4.18s0.93-.78,4.15-0.54c3.14,0.09,6-3.91,6-3.91" transform="translate(-74 -173.8)"/><path class="cls-6" d="M138.23,381.88c-1.82-.08-2.8,2-3,3.28a7.63,7.63,0,0,0,.38,3.5s0.07-.8,1.68-2.18,1-4.6,1-4.6" transform="translate(-74 -173.8)"/><path class="cls-6" d="M144.76,399.36c0.89-1.59-.49-3.38-1.58-4.18a7.63,7.63,0,0,0-3.3-1.23s0.68,0.42,1.19,2.47,3.68,2.94,3.68,2.94" transform="translate(-74 -173.8)"/><path class="cls-6" d="M128.16,398.8c1.35-1.84-.09-4.27-1.31-5.43a9.53,9.53,0,0,0-3.9-2s0.78,0.62,1.1,3.25,4.11,4.2,4.11,4.2" transform="translate(-74 -173.8)"/><path class="cls-6" d="M129.26,401.47s-2.72-.72-4.4,1-2.41,1.88-2.41,1.88a4.88,4.88,0,0,0,3,.56,4.74,4.74,0,0,0,3.78-3.43" transform="translate(-74 -173.8)"/><path class="cls-6" d="M135.37,402.52s-3.26-.48-5,1.71c-1.72,2.34-2.57,2.5-2.57,2.5a5.72,5.72,0,0,0,3.6.26,5.55,5.55,0,0,0,4-4.47" transform="translate(-74 -173.8)"/><path class="cls-6" d="M146.45,402.63a3.71,3.71,0,0,0-2.94,1.64c-0.82,1.67-1.33,1.86-1.33,1.86a3.65,3.65,0,0,0,2.29-.24,3.54,3.54,0,0,0,2-3.26" transform="translate(-74 -173.8)"/><path class="cls-6" d="M145.7,399.6a3.28,3.28,0,0,0,2-2.23,3.22,3.22,0,0,1,.55-1.93,3.36,3.36,0,0,0-1.88.88,3,3,0,0,0-.67,3.28" transform="translate(-74 -173.8)"/><path class="cls-6" d="M134.68,399.34s2.79-.64,3.45-2.91,1.22-2.77,1.22-2.77a5.05,5.05,0,0,0-3,.92,4.54,4.54,0,0,0-1.68,4.75" transform="translate(-74 -173.8)"/><path class="cls-6" d="M159.75,407.19s-3.64-.54-5.58,1.91c-1.92,2.62-2.87,2.8-2.87,2.8a6.39,6.39,0,0,0,4,.29c1.6-.47,4.18-2.17,4.42-5" transform="translate(-74 -173.8)"/><path class="cls-6" d="M175.46,429.54a6.15,6.15,0,0,0-1.83-6.21c-3.19-2.53-3.3-3.55-3.3-3.55s-1.53,2.22-.86,4.15a8.13,8.13,0,0,0,6,5.61" transform="translate(-74 -173.8)"/><path class="cls-6" d="M141.85,433s-3.21.75-4,3.43-1.46,3.27-1.46,3.27a5.72,5.72,0,0,0,3.45-1.08,5.55,5.55,0,0,0,2-5.62" transform="translate(-74 -173.8)"/><path class="cls-6" d="M130.36,435.86c-1-1.52-3.23-1.1-4.44-.5a7.63,7.63,0,0,0-2.6,2.37s0.68-.41,2.75.07,4.29-1.94,4.29-1.94" transform="translate(-74 -173.8)"/><path class="cls-6" d="M128.81,439.52c-1.75-1.16-4.1.09-5.23,1.15a8.06,8.06,0,0,0-2,3.37s0.61-.67,3.14-1,4.08-3.56,4.08-3.56" transform="translate(-74 -173.8)"/><path class="cls-6" d="M132.43,437.47s-3.17,1.66-2.91,4.93-0.2,4.12-.2,4.12,2.45-.51,3.29-2.1a6.41,6.41,0,0,0-.18-6.95" transform="translate(-74 -173.8)"/><path class="cls-6" d="M182.32,430.58A3.43,3.43,0,0,0,185,428.2c0.54-2.21,1-2.51,1-2.51a3,3,0,0,0-2.3.54,4.54,4.54,0,0,0-1.44,4.35" transform="translate(-74 -173.8)"/><path class="cls-6" d="M181.55,430.57c1.21-1.27.47-3.38-.28-4.46A7,7,0,0,0,178.7,424s0.49,0.59.39,2.71,2.46,3.86,2.46,3.86" transform="translate(-74 -173.8)"/><path class="cls-6" d="M144.63,427.8a5.22,5.22,0,0,0-3.35-4.35c-3.3-1-3.7-1.79-3.7-1.79s-0.52,2.22.6,3.54a6.89,6.89,0,0,0,6.46,2.6" transform="translate(-74 -173.8)"/><path class="cls-6" d="M150.66,427.73a4.63,4.63,0,0,0-1.38-4.67c-2.4-1.9-2.49-2.67-2.49-2.67a4.07,4.07,0,0,0-.64,3.12,6.11,6.11,0,0,0,4.51,4.22" transform="translate(-74 -173.8)"/><path class="cls-6" d="M152.9,431.49a5.36,5.36,0,0,0-4.35,2.29c-1.37,2.46-2.11,2.72-2.11,2.72a4.83,4.83,0,0,0,3.24-.23,5.71,5.71,0,0,0,3.22-4.79" transform="translate(-74 -173.8)"/><path class="cls-6" d="M165.41,433s-2.07,3.14-.51,6.12c1.74,3,1.51,4,1.51,4s1.91-1.69,2-3.61a6.86,6.86,0,0,0-3-6.52" transform="translate(-74 -173.8)"/><path class="cls-6" d="M165,433c-1.56-.81-3.38.49-4.2,1.51a7,7,0,0,0-1.31,3.06s0.44-.63,2.49-1.13,3-3.44,3-3.44" transform="translate(-74 -173.8)"/><path class="cls-6" d="M170.58,319.7S170,315,166.41,313.3c-3.78-1.67-4.31-2.79-4.31-2.79s-0.37,3.13,1,5.08c1.11,1.86,4,4.59,7.47,4.12" transform="translate(-74 -173.8)"/><path class="cls-6" d="M172.16,319.4s3.18-3.47,2.18-7.33c-1.18-4-.66-5.09-0.66-5.09s-2.62,1.75-3.22,4.06c-0.7,2-.9,6,1.7,8.36" transform="translate(-74 -173.8)"/><path class="cls-6" d="M174.77,324.55s3.81-1.27,4.54-4.55c0.64-3.43,1.48-4.06,1.48-4.06s-2.71.22-4.07,1.7c-1.34,1.23-3,4.11-1.95,6.92" transform="translate(-74 -173.8)"/><path class="cls-6" d="M173.56,337.2a7,7,0,0,0-3.86-5.71c-4-1.82-4.42-2.8-4.42-2.8a5.36,5.36,0,0,0,.55,4.24,9.71,9.71,0,0,0,7.73,4.26" transform="translate(-74 -173.8)"/><path class="cls-6" d="M178.67,349.68s4.17-2.12,4.29-5.49,0.82-4.31.82-4.31-3.12.84-4.38,2.59c-1.29,1.51-2.64,4.71-.73,7.2" transform="translate(-74 -173.8)"/><path class="cls-6" d="M178.58,351.27c1.63,2.09,4.77,1.87,6.44,1.27a8,8,0,0,0,3.45-2.69s-0.93.44-4-.47-5.93,1.89-5.93,1.89" transform="translate(-74 -173.8)"/><path class="cls-6" d="M179.47,374.67c2.74,0.38,4.85-2.15,5.61-3.87,1-1.8.5-4.66,0.5-4.66s-0.35,1-3.22,2.62c-2.71,1.64-2.9,5.92-2.9,5.92" transform="translate(-74 -173.8)"/><path class="cls-6" d="M182.25,389.66s-2.59-2.44-5.49-1.57-3.82.63-3.82,0.63a6.18,6.18,0,0,0,3,2.46c1.53,0.51,4.51.59,6.27-1.52" transform="translate(-74 -173.8)"/><path class="cls-6" d="M186.11,393.7s-2.63-1-4.48.51-2.6,1.62-2.6,1.62a4.88,4.88,0,0,0,3,.88,4.74,4.74,0,0,0,4.12-3" transform="translate(-74 -173.8)"/><path class="cls-6" d="M267.95,367.64s-0.54-4.65-3.72-6.3c-3.35-1.57-3.83-2.69-3.83-2.69s-0.32,3.14.91,5.05c1,1.83,3.56,4.49,6.63,3.93" transform="translate(-74 -173.8)"/><path class="cls-6" d="M270,364.83c3.09,0.42,5.54-2.35,6.45-4.23,1.14-2,.69-5.09.69-5.09s-0.42,1.13-3.7,2.86c-3.1,1.79-3.43,6.46-3.43,6.46" transform="translate(-74 -173.8)"/><path class="cls-6" d="M269.73,372.14s3.66,0.79,5.72-1.2c2.05-2.14,3-2.21,3-2.21a7.48,7.48,0,0,0-4.06-.6c-1.64.28-4.31,1.55-4.67,4" transform="translate(-74 -173.8)"/><path class="cls-6" d="M245.36,376.92s-0.53-3.7-3.11-4.95-3.12-2.06-3.12-2.06a7.48,7.48,0,0,0,.84,4c0.83,1.44,2.94,3.51,5.38,3" transform="translate(-74 -173.8)"/><path class="cls-6" d="M248,385.8s3.44-1.48,4-4.29,1.18-3.55,1.18-3.55a7.48,7.48,0,0,0-3.66,1.86c-1.18,1.17-2.62,3.76-1.49,6" transform="translate(-74 -173.8)"/><path class="cls-6" d="M246.83,374.43c3.12-.05,5.13-3.16,5.74-5.15,0.83-2.12-.09-5.14-0.09-5.14s-0.25,1.18-3.23,3.38c-2.8,2.24-2.42,6.9-2.42,6.9" transform="translate(-74 -173.8)"/><path class="cls-6" d="M247.84,386.86c0.67,2,3.13,2.74,4.56,2.74a6.47,6.47,0,0,0,3.37-1.1s-0.83.08-2.89-1.45-5.05-.2-5.05-0.2" transform="translate(-74 -173.8)"/><path class="cls-6" d="M245.07,395.74a6.8,6.8,0,0,0-4.46-6.13c-1.86-.86-4.54.19-4.54,0.19s1,0.25,2.94,3.45c1.93,3,6.06,2.5,6.06,2.5" transform="translate(-74 -173.8)"/><path class="cls-6" d="M264.51,383.69c2.67,1.61,6,0,7.6-1.31,1.83-1.35,2.65-4.4,2.65-4.4s-0.84.87-4.53,1.15-5.72,4.56-5.72,4.56" transform="translate(-74 -173.8)"/><path class="cls-6" d="M248.89,345.26c3.09,0.42,5.54-2.35,6.45-4.23,1.14-2,.69-5.09.69-5.09s-0.42,1.13-3.7,2.86c-3.1,1.79-3.43,6.46-3.43,6.46" transform="translate(-74 -173.8)"/><path class="cls-6" d="M244.92,351.58s0-4.71-3.3-6.9c-3.53-2.14-3.91-3.33-3.91-3.33s-0.77,3.06.34,5.17c0.86,2,3.38,5.07,6.87,5.05" transform="translate(-74 -173.8)"/><path class="cls-6" d="M247.88,351.73a5.06,5.06,0,0,0,4.28-2.14c1.35-2.41,2.09-2.65,2.09-2.65a4.65,4.65,0,0,0-3.19.11,5.48,5.48,0,0,0-3.18,4.67" transform="translate(-74 -173.8)"/><path class="cls-6" d="M233.21,369.36s1.29-3.32-.6-5.67c-2.06-2.38-2-3.3-2-3.3a6.18,6.18,0,0,0-1.14,3.74c0.1,1.61,1.15,4.4,3.77,5.24" transform="translate(-74 -173.8)"/><path class="cls-6" d="M228.42,379s1.66-4.4-.69-7.62c-2.56-3.24-2.5-4.49-2.5-4.49s-1.79,2.6-1.48,5c0.11,2.16,1.39,5.93,4.68,7.13" transform="translate(-74 -173.8)"/><path class="cls-6" d="M214.55,366.53s3-2.24,2.86-5.1,0.32-3.72.32-3.72a7.48,7.48,0,0,0-3.12,2.66c-0.87,1.42-1.67,4.26,0,6.16" transform="translate(-74 -173.8)"/><path class="cls-6" d="M215,375.18s-2.39-3.48-5.24-3c-2.94.64-3.74,0-3.74,0s1.16,2.73,2.82,3.59c1.46,0.93,4.35,1.61,6.17-.6" transform="translate(-74 -173.8)"/><path class="cls-6" d="M217.26,372.85c3-.69,4.37-4.14,4.57-6.21,0.38-2.24-1.13-5-1.13-5s0,1.21-2.47,4c-2.28,2.76-1,7.25-1,7.25" transform="translate(-74 -173.8)"/><path class="cls-6" d="M212.38,363.67s1.58-3.39.1-5.84c-1.63-2.47-1.48-3.43-1.48-3.43a7.48,7.48,0,0,0-1.49,3.82c-0.09,1.66.55,4.55,2.87,5.45" transform="translate(-74 -173.8)"/><path class="cls-6" d="M227.23,404.67s4.71,0.13,7-3.55c2.28-3.91,3.48-4.31,3.48-4.31s-3-.93-5.19.28c-2,.92-5.2,3.67-5.32,7.58" transform="translate(-74 -173.8)"/><path class="cls-6" d="M208.75,335.48s2.69-3.86,1.19-7.55c-1.69-3.77-1.33-5-1.33-5s-2.37,2.08-2.65,4.46c-0.42,2.12-.1,6.09,2.79,8.06" transform="translate(-74 -173.8)"/><path class="cls-6" d="M205.72,339.26s0.65-3.66-1.65-5.81c-2.46-2.14-2.6-3.12-2.6-3.12a6.73,6.73,0,0,0-.43,4.08c0.4,1.66,1.95,4.4,4.68,4.86" transform="translate(-74 -173.8)"/><path class="cls-6" d="M205.54,347c3,0.93,5.86-1.39,7.07-3.08,1.46-1.75,1.53-4.9,1.53-4.9s-0.61,1-4.13,2.19c-3.36,1.24-4.47,5.79-4.47,5.79" transform="translate(-74 -173.8)"/><path class="cls-6" d="M199,352.3c1.85-1.9,1.21-5,.39-6.55a8,8,0,0,0-3.13-3.06s0.56,0.86.07,4S199,352.3,199,352.3" transform="translate(-74 -173.8)"/><path class="cls-6" d="M196.62,362.35s-0.13-3-2.3-4.27-2.58-2-2.58-2a5.4,5.4,0,0,0,.37,3.27c0.6,1.23,2.29,3.11,4.51,3" transform="translate(-74 -173.8)"/><path class="cls-6" d="M202.12,373.2s4.11-1,4.86-3.57,1.54-3.2,1.54-3.2-2.93.16-4.39,1.32c-1.43,1-3.24,3.23-2,5.45" transform="translate(-74 -173.8)"/><path class="cls-6" d="M196.92,378.7s-2.26-3.91-5.22-4-3.85-.73-3.85-0.73,1,2.93,2.69,4.1c1.45,1.2,4.38,2.45,6.38.63" transform="translate(-74 -173.8)"/><path class="cls-6" d="M197.09,380.09c-2.51-1.16-5.27.66-6.49,2.09-1.45,1.45-1.82,4.32-1.82,4.32s0.63-.89,3.83-1.58,4.48-4.83,4.48-4.83" transform="translate(-74 -173.8)"/><path class="cls-6" d="M264.74,409.78s2.73-3.8,1.49-7.16c-1.42-3.42-1-4.56-1-4.56s-2.34,2.11-2.72,4.35c-0.5,2-.38,5.72,2.26,7.37" transform="translate(-74 -173.8)"/><path class="cls-6" d="M268,410s4.87,1.18,7.68-2.06c2.79-3.49,4.08-3.63,4.08-3.63s-3-1.62-5.41-.88c-2.2.49-5.8,2.59-6.34,6.57" transform="translate(-74 -173.8)"/><path class="cls-6" d="M267.67,411.26s2.26,3,5.11,2.83,3.72,0.29,3.72.29a7.48,7.48,0,0,0-2.68-3.11c-1.42-.86-4.27-1.64-6.16,0" transform="translate(-74 -173.8)"/><path class="cls-6" d="M254,427.35c2.67,0,4.4-2.66,4.92-4.34a7.79,7.79,0,0,0-.08-4.34s-0.21,1-2.77,2.85c-2.4,1.88-2.07,5.83-2.07,5.83" transform="translate(-74 -173.8)"/><path class="cls-6" d="M269.57,432.93s4.4,2.41,7.95,0c3.6-2.64,4.89-2.44,4.89-2.44s-2.51-2.36-5-2.26c-2.25-.11-6.27,1-7.84,4.68" transform="translate(-74 -173.8)"/><path class="cls-6" d="M258.94,432.54s-1.53,4.26,1.49,7c3.27,2.78,3.31,3.95,3.31,3.95s1.84-2.59,1.27-4.77a7.91,7.91,0,0,0-6.08-6.22" transform="translate(-74 -173.8)"/><path class="cls-6" d="M268.5,432c2-.68,2.72-3.15,2.71-4.59a6.47,6.47,0,0,0-1.13-3.37s0.08,0.83-1.43,2.9S268.5,432,268.5,432" transform="translate(-74 -173.8)"/><path class="cls-6" d="M245.86,430.12a4.64,4.64,0,0,0,1.42,5.31c3,2.13,3,3,3,3s1.61-1.92,1.08-3.57a6.75,6.75,0,0,0-5.5-4.75" transform="translate(-74 -173.8)"/><path class="cls-6" d="M240.05,411.94s3.28,3.12,7,1.47c3.87-1.87,5-1.44,5-1.44s-1.63-2.73-3.85-3.08a7.91,7.91,0,0,0-8.14,3.06" transform="translate(-74 -173.8)"/><path class="cls-6" d="M239.21,412.67c-0.75,1.72.37,3.62,1.25,4.47a5.21,5.21,0,0,0,2.69,1.27s-0.55-.44-1-2.64-3-3.1-3-3.1" transform="translate(-74 -173.8)"/><path class="cls-6" d="M230.77,430.87s3.07-2.85,2-6.6c-1.26-3.88-.78-4.87-0.78-4.87s-2.56,1.3-3.1,3.4a8,8,0,0,0,1.88,8.08" transform="translate(-74 -173.8)"/><path class="cls-6" d="M203.66,403.22s-4.12-1-6.21,1.79c-2.06,3-3.12,3.11-3.12,3.11s2.63,1.37,4.54.72a6.28,6.28,0,0,0,4.78-5.62" transform="translate(-74 -173.8)"/><path class="cls-6" d="M156.61,336.82s3.81-1.27,4.54-4.55c0.64-3.43,1.48-4.06,1.48-4.06s-2.71.22-4.07,1.7c-1.34,1.23-3,4.11-1.95,6.92" transform="translate(-74 -173.8)"/><path class="cls-6" d="M155.21,334.36s3.14-3.58,2.55-7.26c-0.74-3.77-.19-4.9-0.19-4.9a10.1,10.1,0,0,0-3.22,4.15c-0.79,2-1.29,5.91.86,8" transform="translate(-74 -173.8)"/><path class="cls-6" d="M155.06,339.39s-0.89-3.73-4.21-4.8c-3.49-1-4.05-1.86-4.05-1.86a6.37,6.37,0,0,0,1.3,4c1.13,1.4,3.92,3.35,7,2.64" transform="translate(-74 -173.8)"/><path class="cls-6" d="M157.61,349s-1.73-4.26-5.9-4.22c-4.36.21-5.19-.63-5.19-0.63s0.36,3.23,2.27,4.46a8,8,0,0,0,8.82.4" transform="translate(-74 -173.8)"/><path class="cls-6" d="M160.22,346.76a7,7,0,0,0,3.38-6c-0.14-4.35.53-5.2,0.53-5.2a5.36,5.36,0,0,0-3.55,2.39,9.71,9.71,0,0,0-.36,8.82" transform="translate(-74 -173.8)"/><path class="cls-6" d="M160.66,347.54c1.43,1.84,4.19,1.64,5.65,1.12a7,7,0,0,0,3-2.36s-0.82.38-3.47-.41-5.21,1.66-5.21,1.66" transform="translate(-74 -173.8)"/><path class="cls-6" d="M164.87,362.11c2.56-.67,3.8-3.3,4-4.85a5.86,5.86,0,0,0-.77-3.66s0,0.9-2.21,3.08c-2,2.17-1.06,5.43-1.06,5.43" transform="translate(-74 -173.8)"/><path class="cls-6" d="M166.75,369.15a5.4,5.4,0,0,0,4.9-3.42,5.49,5.49,0,0,0,0-3.59s-0.22.82-2.76,2.26c-2.39,1.48-2.11,4.75-2.11,4.75" transform="translate(-74 -173.8)"/><path class="cls-6" d="M166.78,391.4c0.24-2.67-2.64-4.48-4.55-5.06-2-.77-5.08-0.07-5.08-0.07s1.15,0.25,3,2.86c1.95,2.46,6.59,2.27,6.59,2.27" transform="translate(-74 -173.8)"/><path class="cls-6" d="M167.44,391.87a4.87,4.87,0,0,0-5.15.8C159.85,395,159,395,159,395a4.11,4.11,0,0,0,3.15,1.15,6.87,6.87,0,0,0,5.25-4.25" transform="translate(-74 -173.8)"/><path class="cls-6" d="M168.79,376.71A4.39,4.39,0,0,0,170.9,373c-0.09-2.72.33-3.25,0.33-3.25a3.35,3.35,0,0,0-2.22,1.49,6.07,6.07,0,0,0-.22,5.51" transform="translate(-74 -173.8)"/><path class="cls-6" d="M165.32,363.18a4.3,4.3,0,0,0,4.19-.5c2.1-1.64,2.76-1.62,2.76-1.62a3.28,3.28,0,0,0-2.46-.89,5.94,5.94,0,0,0-4.48,3" transform="translate(-74 -173.8)"/><path class="cls-6" d="M184.86,415.46s2.21-2.85,1.05-5.68c-1.31-2.9-1-3.79-1-3.79a6.25,6.25,0,0,0-2.19,3.29c-0.37,1.59-.16,4.6,2.14,6.17" transform="translate(-74 -173.8)"/><path class="cls-6" d="M185.09,416.31s2.58,0.41,4-1.32,2-2,2-2a4.53,4.53,0,0,0-2.85-.23,4.39,4.39,0,0,0-3.16,3.51" transform="translate(-74 -173.8)"/><path class="cls-6" d="M198.39,424.38a4.1,4.1,0,0,0,.44-5c-2-2.8-1.74-3.57-1.74-3.57S195,416.91,195,418.5a6.27,6.27,0,0,0,3.43,5.88" transform="translate(-74 -173.8)"/><path class="cls-6" d="M183,438.1a4.1,4.1,0,0,0-5,.17c-2.54,2.3-3.34,2.16-3.34,2.16s1.36,1.93,2.95,1.79A6.27,6.27,0,0,0,183,438.1" transform="translate(-74 -173.8)"/><path class="cls-6" d="M154.82,427.24a4.23,4.23,0,0,0-1.41-3.58c-1.77-1.17-1.91-1.78-1.91-1.78a4.17,4.17,0,0,0-.07,2.63,4,4,0,0,0,3.39,2.73" transform="translate(-74 -173.8)"/><path class="cls-6" d="M133.79,432.13s-1.17-3.28-4.08-3.08-3.6-.29-3.6-0.29,0.23,2.52,1.55,3.41a5,5,0,0,0,6.13,0" transform="translate(-74 -173.8)"/><path class="cls-18" d="M264.6,409.33a5.26,5.26,0,0,1-.43,2.12l0.4-.08a10.71,10.71,0,0,1,.32-2.2Z" transform="translate(-74 -173.8)"/><path class="cls-18" d="M268.39,409.63s-1.81.88-2.27,0.62l0.24,0.43a10.3,10.3,0,0,1,2.3-.8Z" transform="translate(-74 -173.8)"/><path class="cls-18" d="M268,411.26a4.2,4.2,0,0,1-1.52-.83l0,0.32a8.55,8.55,0,0,1,1.6.76Z" transform="translate(-74 -173.8)"/><path class="cls-18" d="M270,432.64s-2,.38-2.35,0l0.12,0.47a10.3,10.3,0,0,1,2.43-.17Z" transform="translate(-74 -173.8)"/><path class="cls-18" d="M259.31,432.92s-0.75-1.69-.46-2.08l-0.44.18a8.65,8.65,0,0,1,.63,2.12Z" transform="translate(-74 -173.8)"/><path class="cls-18" d="M268.66,431.7a3.63,3.63,0,0,0-.05,1.49l-0.26-.12a7.4,7.4,0,0,0,.14-1.53Z" transform="translate(-74 -173.8)"/><path class="cls-18" d="M246.19,430.4s-0.69-1.28-.43-1.57l-0.39.13a6,6,0,0,1,.59,1.6Z" transform="translate(-74 -173.8)"/><path class="cls-18" d="M240.55,411.76s-1.85,0-2.09-.42v0.48a8.65,8.65,0,0,1,2.19.28Z" transform="translate(-74 -173.8)"/><path class="cls-18" d="M239.28,412.94a3.08,3.08,0,0,0-.88-0.92l0.22-.1a6.32,6.32,0,0,0,.85,1Z" transform="translate(-74 -173.8)"/><path class="cls-18" d="M230.65,430.38s-0.18,1.77-.58,2l0.42,0.06a9,9,0,0,1,.46-2.07Z" transform="translate(-74 -173.8)"/><path class="cls-18" d="M267.54,367.41a5.26,5.26,0,0,1,1.11,1.86l0.24-.33a10.71,10.71,0,0,1-1.24-1.84Z" transform="translate(-74 -173.8)"/><path class="cls-18" d="M270.41,364.58a5.26,5.26,0,0,0-1,1.9l-0.26-.32a10.71,10.71,0,0,0,1.16-1.89Z" transform="translate(-74 -173.8)"/><path class="cls-18" d="M270,371.89a4.2,4.2,0,0,1-1.69.36l0.18,0.27a8.55,8.55,0,0,1,1.71-.47Z" transform="translate(-74 -173.8)"/><path class="cls-18" d="M245,376.74a4.2,4.2,0,0,1,.93,1.46l0.19-.27a8.55,8.55,0,0,1-1-1.44Z" transform="translate(-74 -173.8)"/><path class="cls-18" d="M248.11,385.44a4.2,4.2,0,0,1-1.17,1.27l0.31,0.11a8.55,8.55,0,0,1,1.12-1.37h-0.26Z" transform="translate(-74 -173.8)"/><path class="cls-18" d="M247.18,374.12a5.26,5.26,0,0,0-.73,2l-0.3-.27a10.71,10.71,0,0,0,.86-2Z" transform="translate(-74 -173.8)"/><path class="cls-18" d="M248.12,387a3.63,3.63,0,0,0-1.49-.07l0.12-.26a7.4,7.4,0,0,0,1.53.15Z" transform="translate(-74 -173.8)"/><path class="cls-18" d="M244.8,395.37s1.38,0.92,1.79.75l-0.25.33a8.29,8.29,0,0,0-1.79-.9Z" transform="translate(-74 -173.8)"/><path class="cls-18" d="M265,383.61a5.26,5.26,0,0,0-1.7,1.34l-0.11-.39a10.71,10.71,0,0,0,1.82-1.27v0.33Z" transform="translate(-74 -173.8)"/><path class="cls-18" d="M249.29,345a5.26,5.26,0,0,0-1,1.9l-0.26-.32a10.71,10.71,0,0,0,1.16-1.89Z" transform="translate(-74 -173.8)"/><path class="cls-18" d="M244.5,351.27s1.12,1.57,1,2l0.32-.28a11.11,11.11,0,0,1-1.14-2Z" transform="translate(-74 -173.8)"/><path class="cls-18" d="M248.07,351.44a3.06,3.06,0,0,1-1.26.64l0.17,0.23a6.46,6.46,0,0,1,1.27-.75Z" transform="translate(-74 -173.8)"/><path class="cls-18" d="M233,369a3.75,3.75,0,0,1,.19,1.68l0.31-.12a7.79,7.79,0,0,1-.3-1.72Z" transform="translate(-74 -173.8)"/><path class="cls-18" d="M228.14,378.61s0.5,1.86.22,2.25l0.39-.15a11.11,11.11,0,0,1-.36-2.31Z" transform="translate(-74 -173.8)"/><path class="cls-18" d="M214.55,366.15a4.2,4.2,0,0,1-.84,1.51l0.32,0a8.55,8.55,0,0,1,.77-1.6Z" transform="translate(-74 -173.8)"/><path class="cls-18" d="M214.66,375.22a3.7,3.7,0,0,1,1.55.88l0-.41a7.32,7.32,0,0,1-1.64-.78Z" transform="translate(-74 -173.8)"/><path class="cls-18" d="M217.54,372.47a5.26,5.26,0,0,0-.3,2.14l-0.35-.21a10.71,10.71,0,0,0,.43-2.18Z" transform="translate(-74 -173.8)"/><path class="cls-18" d="M227.55,404.21s-1.61,1.22-2.07,1.06l0.27,0.36a11.07,11.07,0,0,1,2.08-1.24Z" transform="translate(-74 -173.8)"/><path class="cls-18" d="M208.58,335s0,1.93-.34,2.24l0.42-.05a11.11,11.11,0,0,1,.22-2.33Z" transform="translate(-74 -173.8)"/><path class="cls-18" d="M205.44,339a4.23,4.23,0,0,1,.5,1.72l0.28-.18a8.78,8.78,0,0,1-.62-1.74Z" transform="translate(-74 -173.8)"/><path class="cls-18" d="M206,346.81a5.26,5.26,0,0,0-1.33,1.71l-0.2-.35a10.71,10.71,0,0,0,1.46-1.67Z" transform="translate(-74 -173.8)"/><path class="cls-18" d="M199.07,351.9a4.48,4.48,0,0,0,.78,1.67l-0.35,0a9.11,9.11,0,0,0-.7-1.75Z" transform="translate(-74 -173.8)"/><path class="cls-18" d="M196.35,362.17a3.39,3.39,0,0,1,.69,1.26l0.19-.19a7,7,0,0,1-.79-1.26Z" transform="translate(-74 -173.8)"/><path class="cls-18" d="M202.24,372.87a4.1,4.1,0,0,1-1.43,1.06l0.36,0.14a8,8,0,0,1,1.38-1.16Z" transform="translate(-74 -173.8)"/><path class="cls-18" d="M196.53,378.67a4.63,4.63,0,0,1,1.55,1.17l0-.4a9.13,9.13,0,0,1-1.64-1.1Z" transform="translate(-74 -173.8)"/><path class="cls-18" d="M196.69,380.22A4.74,4.74,0,0,0,198,378.8l0.14,0.34a9.57,9.57,0,0,0-1.44,1.38Z" transform="translate(-74 -173.8)"/><path class="cls-18" d="M170.13,319.45s1.31,1.41,1.25,1.89l0.28-.32a11.11,11.11,0,0,1-1.4-1.87Z" transform="translate(-74 -173.8)"/><path class="cls-18" d="M172,318.9s-0.23,1.91-.63,2.17h0.42a11.11,11.11,0,0,1,.52-2.28Z" transform="translate(-74 -173.8)"/><path class="cls-18" d="M174.88,324.13a4.33,4.33,0,0,1-1.34,1.35l0.33,0.18a9,9,0,0,1,1.29-1.48Z" transform="translate(-74 -173.8)"/><path class="cls-18" d="M173.09,336.94s1.28,1.31,1.16,1.68l0.34-.23a9.66,9.66,0,0,1-1.33-1.69Z" transform="translate(-74 -173.8)"/><path class="cls-18" d="M178.71,349.25a4.58,4.58,0,0,1-1.26,1.63l0.42,0.1a9.19,9.19,0,0,1,1.18-1.74Z" transform="translate(-74 -173.8)"/><path class="cls-18" d="M179,351.35a4.48,4.48,0,0,0-1.76.55l0-.35a9.11,9.11,0,0,0,1.83-.46Z" transform="translate(-74 -173.8)"/><path class="cls-18" d="M179.81,374.43a4.74,4.74,0,0,0-.87,1.74l-0.23-.29a9.57,9.57,0,0,0,1-1.73Z" transform="translate(-74 -173.8)"/><path class="cls-18" d="M181.86,389.75a3.75,3.75,0,0,1,1.63.45v-0.33a7.79,7.79,0,0,1-1.71-.37Z" transform="translate(-74 -173.8)"/><path class="cls-18" d="M185.86,393.88a3,3,0,0,1,1.32-.16l-0.1-.25a6.16,6.16,0,0,1-1.36.25Z" transform="translate(-74 -173.8)"/><path class="cls-18" d="M203.37,403.57s1.43-.76,1.83-0.54l-0.23-.36a7.75,7.75,0,0,1-1.84.69Z" transform="translate(-74 -173.8)"/><path class="cls-18" d="M156.73,336.39a4.33,4.33,0,0,1-1.34,1.35l0.33,0.18a9,9,0,0,1,1.29-1.48Z" transform="translate(-74 -173.8)"/><path class="cls-18" d="M155.15,333.87a6.22,6.22,0,0,1-.74,2.15l0.38,0a12.76,12.76,0,0,1,.65-2.25Z" transform="translate(-74 -173.8)"/><path class="cls-18" d="M154.64,339.23a4.31,4.31,0,0,1,1.25,1.41l0.22-.28a9.09,9.09,0,0,1-1.39-1.39Z" transform="translate(-74 -173.8)"/><path class="cls-18" d="M157.07,348.94s1.71,0.74,1.75,1.24l0.21-.45a8.53,8.53,0,0,1-1.91-1.15Z" transform="translate(-74 -173.8)"/><path class="cls-18" d="M160.23,346.23s-0.6,1.73-1,1.79l0.35,0.2a9.66,9.66,0,0,1,.92-1.94Z" transform="translate(-74 -173.8)"/><path class="cls-18" d="M161,347.61a3.93,3.93,0,0,0-1.54.48l0-.3a8,8,0,0,0,1.61-.4Z" transform="translate(-74 -173.8)"/><path class="cls-18" d="M165.11,361.81a3.72,3.72,0,0,0-.32,1.61l-0.29-.13a7.77,7.77,0,0,0,.43-1.64Z" transform="translate(-74 -173.8)"/><path class="cls-18" d="M167.05,368.95a3.22,3.22,0,0,0-.63,1.4l-0.25-.2a6.7,6.7,0,0,0,.75-1.4Z" transform="translate(-74 -173.8)"/><path class="cls-18" d="M166.51,391.09a5.32,5.32,0,0,0,1.94.68l-0.3.25a10.57,10.57,0,0,0-1.94-.8Z" transform="translate(-74 -173.8)"/><path class="cls-18" d="M167.12,392.13a3,3,0,0,1,1.52-.25l-0.06-.34a6.51,6.51,0,0,1-1.58.37Z" transform="translate(-74 -173.8)"/><path class="cls-18" d="M136.51,342.25a3.58,3.58,0,0,1-.8,1.45l0.29,0.16a7.84,7.84,0,0,1,.75-1.58Z" transform="translate(-74 -173.8)"/><path class="cls-18" d="M168.8,376.38a2.75,2.75,0,0,1-.62,1.12l0.22,0.13a6,6,0,0,1,.58-1.21Z" transform="translate(-74 -173.8)"/><path class="cls-18" d="M165.59,363a2.7,2.7,0,0,1-1.24.16l0,0.25a5.91,5.91,0,0,1,1.29-.25Z" transform="translate(-74 -173.8)"/><path class="cls-18" d="M142.57,348.83a3.08,3.08,0,0,1,.1,1.42l0.28,0a6.74,6.74,0,0,1-.2-1.49Z" transform="translate(-74 -173.8)"/><path class="cls-18" d="M138.18,348.46s1.46,0.51,1.5.84l0.17-.29a8.18,8.18,0,0,1-1.63-.78Z" transform="translate(-74 -173.8)"/><path class="cls-18" d="M151.26,354.5a3.28,3.28,0,0,0-1.09.82l-0.05-.26a6.6,6.6,0,0,0,1.16-.77Z" transform="translate(-74 -173.8)"/><path class="cls-18" d="M150.28,354.53a2.13,2.13,0,0,0,.25.84l-0.16,0a4.33,4.33,0,0,0-.21-0.87Z" transform="translate(-74 -173.8)"/><path class="cls-18" d="M143.92,353.94a3.11,3.11,0,0,0,1.22-.38l0,0.24a6.32,6.32,0,0,0-1.27.32Z" transform="translate(-74 -173.8)"/><path class="cls-18" d="M149.23,356.93a2.94,2.94,0,0,0,1.19-.23l0,0.22a6,6,0,0,0-1.23.16Z" transform="translate(-74 -173.8)"/><path class="cls-18" d="M155.52,394.74a3.93,3.93,0,0,0,.11,1.61l-0.29-.1a8,8,0,0,0,0-1.66Z" transform="translate(-74 -173.8)"/><path class="cls-18" d="M133.66,367.61a5.47,5.47,0,0,0,.32,1.77l-0.26,0a11.42,11.42,0,0,0-.25-1.85Z" transform="translate(-74 -173.8)"/><path class="cls-18" d="M134.1,368.87a2,2,0,0,1-.79.51l0.1,0.16a4.45,4.45,0,0,1,.8-0.59Z" transform="translate(-74 -173.8)"/><path class="cls-18" d="M132.58,372.7a2.75,2.75,0,0,1,1.2.44l0.09-.24a6,6,0,0,1-1.29-.39v0.18Z" transform="translate(-74 -173.8)"/><path class="cls-18" d="M143.27,380.54a2.61,2.61,0,0,1-.33,1.38h0.34a5.46,5.46,0,0,1,.23-1.45Z" transform="translate(-74 -173.8)"/><path class="cls-18" d="M147.06,385.76a1.47,1.47,0,0,1-.49.66l0.18,0.08a3,3,0,0,1,.45-0.72Z" transform="translate(-74 -173.8)"/><path class="cls-18" d="M128.38,363.25a2.4,2.4,0,0,1,.77.83l0.15-.17a5.15,5.15,0,0,1-.86-0.82Z" transform="translate(-74 -173.8)"/><path class="cls-18" d="M130.31,363.23a2.53,2.53,0,0,1-.17,1.16l0.23,0a5.54,5.54,0,0,1,.1-1.23Z" transform="translate(-74 -173.8)"/><path class="cls-18" d="M147.57,386.35a1,1,0,0,1-.64-0.07v0.19a2,2,0,0,1,.67,0Z" transform="translate(-74 -173.8)"/><path class="cls-18" d="M136.13,378.2a1.91,1.91,0,0,1,.88.59l0.12-.22a4.1,4.1,0,0,1-1-.54Z" transform="translate(-74 -173.8)"/><path class="cls-18" d="M137.06,381.23a5.33,5.33,0,0,0,1.78-1.15v0.42a10.47,10.47,0,0,0-1.87,1.06Z" transform="translate(-74 -173.8)"/><path class="cls-18" d="M138,382.08a3.5,3.5,0,0,0,.3-1.36l0.19,0.2a6.87,6.87,0,0,0-.38,1.36Z" transform="translate(-74 -173.8)"/><path class="cls-18" d="M144.66,399.1a3.5,3.5,0,0,0,1.08.87l-0.26.09a6.87,6.87,0,0,0-1-.94h0.23Z" transform="translate(-74 -173.8)"/><path class="cls-18" d="M128.09,398.47a4.37,4.37,0,0,0,1.21,1.25l-0.34.07a8.58,8.58,0,0,0-1.15-1.33Z" transform="translate(-74 -173.8)"/><path class="cls-18" d="M129,401.68a3,3,0,0,1,1.3-.3l-0.12-.23a6.16,6.16,0,0,1-1.32.39Z" transform="translate(-74 -173.8)"/><path class="cls-18" d="M135.13,402.79a3.47,3.47,0,0,1,1.47-.51l-0.17-.26a7.21,7.21,0,0,1-1.49.63Z" transform="translate(-74 -173.8)"/><path class="cls-18" d="M146.33,402.83a2.21,2.21,0,0,1,.87-0.49l-0.14-.14a4.6,4.6,0,0,1-.86.56Z" transform="translate(-74 -173.8)"/><path class="cls-18" d="M145.74,399.4a2,2,0,0,1-.59.66l0.16,0.08a4,4,0,0,1,.56-0.72Z" transform="translate(-74 -173.8)"/><path class="cls-18" d="M134.78,399a2.93,2.93,0,0,1-1,.87l0.23,0.15a6,6,0,0,1,1-1Z" transform="translate(-74 -173.8)"/><path class="cls-18" d="M159.49,407.49a3.88,3.88,0,0,1,1.65-.58l-0.19-.29a8.06,8.06,0,0,1-1.66.7Z" transform="translate(-74 -173.8)"/><path class="cls-18" d="M184.73,415.09a3.8,3.8,0,0,1-.3,1.68l0.34,0A7.89,7.89,0,0,1,185,415Z" transform="translate(-74 -173.8)"/><path class="cls-18" d="M185.29,416.1a2.75,2.75,0,0,1-1.17.4l0.14,0.2a5.71,5.71,0,0,1,1.18-.48Z" transform="translate(-74 -173.8)"/><path class="cls-18" d="M182.41,430.32a2.09,2.09,0,0,1-.8.71l0.17,0.17a4.51,4.51,0,0,1,.78-0.8Z" transform="translate(-74 -173.8)"/><path class="cls-18" d="M198.18,424s0.21,1.32-.12,1.49l0.4,0a5.25,5.25,0,0,1,0-1.57Z" transform="translate(-74 -173.8)"/><path class="cls-18" d="M175.1,429.2s0.8,1.5.55,1.84l0.4-.15a8.08,8.08,0,0,1-.71-1.88Z" transform="translate(-74 -173.8)"/><path class="cls-18" d="M141.73,433.37a3.47,3.47,0,0,1,1.18-1l-0.26-.17a7.21,7.21,0,0,1-1.15,1.13Z" transform="translate(-74 -173.8)"/><path class="cls-18" d="M130.09,435.83a3.5,3.5,0,0,0,1.27-.56l0,0.27a6.87,6.87,0,0,0-1.32.5Z" transform="translate(-74 -173.8)"/><path class="cls-18" d="M128.49,439.59a4.13,4.13,0,0,0,1.21-1l0.06,0.29a8.25,8.25,0,0,0-1.29,1Z" transform="translate(-74 -173.8)"/><path class="cls-18" d="M132.44,437.89s0.47-1.4.85-1.47l-0.35-.14a7,7,0,0,1-.77,1.58Z" transform="translate(-74 -173.8)"/><path class="cls-18" d="M181.54,430.3a3.51,3.51,0,0,0,.72,1.14H182a7,7,0,0,0-.67-1.2Z" transform="translate(-74 -173.8)"/><path class="cls-18" d="M144.24,427.64s1.09,0.94,1,1.28l0.27-.24a6.86,6.86,0,0,1-1.14-1.27Z" transform="translate(-74 -173.8)"/><path class="cls-18" d="M150.38,427.47a2.82,2.82,0,0,1,.42,1.38l0.3-.11a6.08,6.08,0,0,1-.54-1.41Z" transform="translate(-74 -173.8)"/><path class="cls-18" d="M152.71,431.78a3.26,3.26,0,0,1,1.28-.69l-0.17-.22a6.88,6.88,0,0,1-1.29.79Z" transform="translate(-74 -173.8)"/><path class="cls-18" d="M165.59,433.38a4,4,0,0,1,.14-1.81l-0.36,0a8.3,8.3,0,0,1,0,1.89Z" transform="translate(-74 -173.8)"/><path class="cls-18" d="M164.71,433a3.51,3.51,0,0,0,.9-1l0.08,0.24a7,7,0,0,0-1,1V433Z" transform="translate(-74 -173.8)"/><path class="cls-18" d="M182.63,438.36s1.29-.37,1.49-0.06l0-.4a5.25,5.25,0,0,1-1.56.2Z" transform="translate(-74 -173.8)"/><path class="cls-18" d="M154.61,427.07a2.53,2.53,0,0,1,.42,1.06l0.18-.14a5.26,5.26,0,0,1-.51-1.06Z" transform="translate(-74 -173.8)"/><path class="cls-18" d="M133.42,432.14a2.59,2.59,0,0,1,1.21.9l0.15-.36a5.33,5.33,0,0,1-1.32-.83Z" transform="translate(-74 -173.8)"/><path class="cls-3" d="M188.88,524.39s17.7-12.51,27.31-12.25,22.54,9,30.86,6" transform="translate(-74 -173.8)"/><path class="cls-6" d="M188.88,524.39l0.53-.46c0.32-.28.76-0.85,1.4-1.41a52.76,52.76,0,0,1,5.52-4.53c1.16-.82,2.53-1.73,4-2.63a40.32,40.32,0,0,1,4.79-2.58,21,21,0,0,1,2.68-1.12c0.51-.17.93-0.34,1.44-0.5s1-.33,1.44-0.5a14,14,0,0,1,3.15-.68,8.81,8.81,0,0,1,1.71-.08l0.41-.07h0.6l0.7,0,0.7,0,0.8,0.06,1.68,0.32a26.53,26.53,0,0,1,3,.81c1,0.27,1.86.63,2.84,0.9s1.76,0.62,2.64,1c1.65,0.72,3.32,1.33,4.87,2,0.78,0.35,1.46.6,2.24,1a17.24,17.24,0,0,0,2,.84c1.37,0.5,2.55.88,3.63,1.15,0.59,0.14,1.09.18,1.58,0.31,0.2,0,.49.13,0.69,0.15l0.6,0,1.1,0.08c0.3,0,.61-0.06.8,0a4.18,4.18,0,0,1,.71-0.05,4.57,4.57,0,0,0-.63.36,5.94,5.94,0,0,1-.83.34,3.58,3.58,0,0,1-1.12.32,6.37,6.37,0,0,1-.71.15c-0.21.09-.51,0.07-0.81,0.14-0.51.07-1.11,0.12-1.72,0.18a29.35,29.35,0,0,1-4.19-.29,44.89,44.89,0,0,1-4.75-.93c-1.68-.42-3.34-0.93-5.12-1.36s-3.54-1-5.31-1.47a25.12,25.12,0,0,0-2.67-.58l-1.19-.18-0.3,0-0.4,0-0.7,0-0.7,0h-0.1l-0.3,0c-0.41.07-.8,0-1.21,0.12-0.81.14-1.62,0.19-2.54,0.43a41.4,41.4,0,0,0-5,1.56c-1.64.59-3.2,1.28-4.74,1.88s-2.9,1.3-4.23,1.81c-2.69,1.22-4.86,2.17-6.41,2.87A11.21,11.21,0,0,0,188.88,524.39Z" transform="translate(-74 -173.8)"/><circle class="cls-19" cx="231.4" cy="230.5" r="3.47"/><path class="cls-20" d="M487.2,504.1L303.9,610a2.17,2.17,0,0,1-2.2,0L118.3,504.1a2.14,2.14,0,0,1-1.1-1.9V290.4a2.14,2.14,0,0,1,1.1-1.9L301.7,182.6a2.17,2.17,0,0,1,2.2,0l183.3,106a2.14,2.14,0,0,1,1.1,1.9V502.3A2.11,2.11,0,0,1,487.2,504.1Z" transform="translate(-74 -173.8)"/><path class="cls-1" d="M487.2,504.1L303.9,610a2.17,2.17,0,0,1-2.2,0L118.3,504.1a2.14,2.14,0,0,1-1.1-1.9V290.4a2.14,2.14,0,0,1,1.1-1.9L301.7,182.6a2.17,2.17,0,0,1,2.2,0l183.3,106a2.14,2.14,0,0,1,1.1,1.9V502.3A2.11,2.11,0,0,1,487.2,504.1Z" transform="translate(-74 -173.8)"/></g></svg>